<svg width="305" height="56" viewBox="0 0 305 56" fill="none" xmlns="http://www.w3.org/2000/svg">
<path d="M28.766 38.944C28.814 39.088 28.862 39.22 28.91 39.34C28.958 39.46 28.994 39.592 29.018 39.736C29.066 39.88 29.09 40.012 29.09 40.132C29.09 40.3 29.03 40.432 28.91 40.528C28.79 40.648 28.646 40.744 28.478 40.816C28.334 40.888 28.19 40.936 28.046 40.96C27.902 40.984 27.818 40.996 27.794 40.996C27.65 40.996 27.386 40.552 27.002 39.664C26.618 38.8 26.198 37.576 25.742 35.992C25.31 34.408 24.866 32.524 24.41 30.34C23.954 28.156 23.582 25.756 23.294 23.14C23.246 23.692 23.15 24.34 23.006 25.084C22.886 25.804 22.694 26.488 22.43 27.136C22.166 27.784 21.818 28.336 21.386 28.792C20.978 29.224 20.45 29.44 19.802 29.44C19.346 29.44 18.83 29.2 18.254 28.72C17.678 28.24 17.114 27.676 16.562 27.028C16.034 26.356 15.542 25.684 15.086 25.012C14.654 24.316 14.33 23.752 14.114 23.32C14.21 24.376 14.366 25.648 14.582 27.136C14.822 28.624 15.182 30.196 15.662 31.852C15.71 32.02 15.758 32.152 15.806 32.248C15.878 32.32 15.938 32.404 15.986 32.5C16.058 32.596 16.106 32.704 16.13 32.824C16.178 32.92 16.202 33.076 16.202 33.292C16.202 33.604 16.082 33.832 15.842 33.976C15.602 34.12 15.374 34.192 15.158 34.192C15.038 34.192 14.882 34.012 14.69 33.652C14.498 33.268 14.294 32.776 14.078 32.176C13.862 31.576 13.646 30.916 13.43 30.196C13.214 29.452 13.01 28.72 12.818 28C12.65 27.28 12.506 26.608 12.386 25.984C12.266 25.336 12.206 24.82 12.206 24.436C12.206 23.812 12.23 23.38 12.278 23.14C12.35 22.9 12.446 22.72 12.566 22.6V20.404C12.566 20.068 12.65 19.816 12.818 19.648C13.01 19.456 13.25 19.36 13.538 19.36C13.778 19.36 14.054 19.564 14.366 19.972C14.678 20.38 15.014 20.896 15.374 21.52C15.758 22.144 16.154 22.816 16.562 23.536C16.97 24.256 17.366 24.928 17.75 25.552C18.158 26.176 18.542 26.692 18.902 27.1C19.286 27.508 19.646 27.712 19.982 27.712C20.294 27.712 20.594 27.424 20.882 26.848C21.17 26.248 21.434 25.468 21.674 24.508C21.938 23.548 22.166 22.456 22.358 21.232C22.55 20.008 22.706 18.76 22.826 17.488C22.826 17.344 22.814 17.188 22.79 17.02C22.766 16.828 22.754 16.624 22.754 16.408C22.754 16.12 22.814 15.808 22.934 15.472C23.078 15.136 23.342 14.968 23.726 14.968C23.942 14.968 24.11 15.028 24.23 15.148C24.374 15.268 24.47 15.424 24.518 15.616C24.566 15.784 24.59 15.964 24.59 16.156C24.614 16.324 24.626 16.468 24.626 16.588C24.626 16.78 24.602 17.104 24.554 17.56C24.53 17.992 24.518 18.664 24.518 19.576C24.518 20.368 24.578 21.292 24.698 22.348C24.818 23.38 24.974 24.484 25.166 25.66C25.382 26.812 25.622 28.012 25.886 29.26C26.174 30.484 26.474 31.684 26.786 32.86C27.122 34.036 27.446 35.152 27.758 36.208C28.094 37.24 28.43 38.152 28.766 38.944ZM39.9871 33.22C40.0111 33.268 40.0231 33.34 40.0231 33.436C40.0231 33.58 39.9151 33.796 39.6991 34.084C39.6271 34.18 39.4711 34.336 39.2311 34.552C38.9911 34.768 38.6671 34.984 38.2591 35.2C37.8511 35.416 37.3471 35.608 36.7471 35.776C36.1711 35.944 35.4871 36.028 34.6951 36.028C34.1431 36.028 33.6031 35.908 33.0751 35.668C32.5471 35.404 32.0791 35.032 31.6711 34.552C31.2631 34.048 30.9271 33.436 30.6631 32.716C30.3991 31.972 30.2671 31.108 30.2671 30.124C30.2671 29.188 30.3871 28.312 30.6271 27.496C30.8671 26.68 31.1671 25.96 31.5271 25.336C31.9111 24.712 32.3311 24.22 32.7871 23.86C33.2431 23.5 33.6871 23.32 34.1191 23.32C34.5031 23.32 34.8871 23.404 35.2711 23.572C35.6791 23.716 36.0391 23.908 36.3511 24.148C36.6871 24.388 36.9511 24.664 37.1431 24.976C37.3351 25.264 37.4311 25.564 37.4311 25.876C37.4311 26.236 37.2631 26.608 36.9271 26.992C36.6151 27.376 36.2311 27.736 35.7751 28.072C35.3191 28.384 34.8631 28.648 34.4071 28.864C33.9511 29.056 33.5911 29.152 33.3271 29.152C33.1831 29.152 33.0511 29.092 32.9311 28.972C32.8351 28.828 32.7871 28.66 32.7871 28.468C32.7871 28.132 32.9311 27.868 33.2191 27.676C33.5311 27.484 33.8671 27.316 34.2271 27.172C34.5871 27.004 34.9111 26.812 35.1991 26.596C35.5111 26.38 35.6671 26.08 35.6671 25.696C35.6671 25.648 35.6071 25.528 35.4871 25.336C35.3671 25.144 35.0431 25.048 34.5151 25.048C34.2751 25.048 33.9991 25.192 33.6871 25.48C33.3751 25.744 33.0751 26.116 32.7871 26.596C32.4991 27.052 32.2591 27.604 32.0671 28.252C31.8751 28.876 31.7791 29.56 31.7791 30.304C31.7791 30.928 31.8871 31.492 32.1031 31.996C32.3431 32.5 32.6431 32.932 33.0031 33.292C33.3631 33.628 33.7831 33.892 34.2631 34.084C34.7431 34.276 35.2351 34.372 35.7391 34.372C36.0991 34.372 36.4831 34.3 36.8911 34.156C37.3231 33.988 37.7191 33.82 38.0791 33.652C38.4631 33.46 38.7871 33.292 39.0511 33.148C39.3391 32.98 39.5191 32.896 39.5911 32.896C39.6631 32.896 39.7351 32.932 39.8071 33.004C39.9031 33.076 39.9631 33.148 39.9871 33.22ZM52.5378 33.22C52.5618 33.268 52.5738 33.34 52.5738 33.436C52.5738 33.58 52.4658 33.796 52.2498 34.084C52.1778 34.18 52.0218 34.336 51.7818 34.552C51.5418 34.768 51.2178 34.984 50.8098 35.2C50.4018 35.416 49.8978 35.608 49.2978 35.776C48.7218 35.944 48.0378 36.028 47.2458 36.028C46.6938 36.028 46.1538 35.908 45.6258 35.668C45.0978 35.404 44.6298 35.032 44.2218 34.552C43.8138 34.048 43.4778 33.436 43.2138 32.716C42.9498 31.972 42.8178 31.108 42.8178 30.124C42.8178 29.188 42.9378 28.312 43.1778 27.496C43.4178 26.68 43.7178 25.96 44.0778 25.336C44.4618 24.712 44.8818 24.22 45.3378 23.86C45.7938 23.5 46.2378 23.32 46.6698 23.32C47.0538 23.32 47.4378 23.404 47.8218 23.572C48.2298 23.716 48.5898 23.908 48.9018 24.148C49.2378 24.388 49.5018 24.664 49.6938 24.976C49.8858 25.264 49.9818 25.564 49.9818 25.876C49.9818 26.236 49.8138 26.608 49.4778 26.992C49.1658 27.376 48.7818 27.736 48.3258 28.072C47.8698 28.384 47.4138 28.648 46.9578 28.864C46.5018 29.056 46.1418 29.152 45.8778 29.152C45.7338 29.152 45.6018 29.092 45.4818 28.972C45.3858 28.828 45.3378 28.66 45.3378 28.468C45.3378 28.132 45.4818 27.868 45.7698 27.676C46.0818 27.484 46.4178 27.316 46.7778 27.172C47.1378 27.004 47.4618 26.812 47.7498 26.596C48.0618 26.38 48.2178 26.08 48.2178 25.696C48.2178 25.648 48.1578 25.528 48.0378 25.336C47.9178 25.144 47.5938 25.048 47.0658 25.048C46.8258 25.048 46.5498 25.192 46.2378 25.48C45.9258 25.744 45.6258 26.116 45.3378 26.596C45.0498 27.052 44.8098 27.604 44.6178 28.252C44.4258 28.876 44.3298 29.56 44.3298 30.304C44.3298 30.928 44.4378 31.492 44.6538 31.996C44.8938 32.5 45.1938 32.932 45.5538 33.292C45.9138 33.628 46.3338 33.892 46.8138 34.084C47.2938 34.276 47.7858 34.372 48.2898 34.372C48.6498 34.372 49.0338 34.3 49.4418 34.156C49.8738 33.988 50.2698 33.82 50.6298 33.652C51.0138 33.46 51.3378 33.292 51.6018 33.148C51.8898 32.98 52.0698 32.896 52.1418 32.896C52.2138 32.896 52.2858 32.932 52.3578 33.004C52.4538 33.076 52.5138 33.148 52.5378 33.22ZM64.6206 20.728C64.3086 21.088 63.8646 21.448 63.2886 21.808C62.7126 22.144 62.1366 22.456 61.5606 22.744C60.9846 23.032 60.4806 23.284 60.0486 23.5C59.6166 23.692 59.4006 23.824 59.4006 23.896C59.4006 23.968 59.4486 24.184 59.5446 24.544C59.6406 24.904 59.7486 25.336 59.8686 25.84C60.0126 26.32 60.1566 26.824 60.3006 27.352C60.4446 27.88 60.5646 28.348 60.6606 28.756C60.7086 28.996 60.7686 29.308 60.8406 29.692C60.9126 30.076 60.9726 30.46 61.0206 30.844C61.0926 31.228 61.1526 31.576 61.2006 31.888C61.2486 32.176 61.2726 32.332 61.2726 32.356C61.2726 32.716 61.2126 33.088 61.0926 33.472C60.9726 33.856 60.7806 34.048 60.5166 34.048C60.3726 34.048 60.2406 33.988 60.1206 33.868C60.0006 33.748 59.8926 33.616 59.7966 33.472C59.7006 33.304 59.6286 33.148 59.5806 33.004C59.5326 32.86 59.5086 32.752 59.5086 32.68C59.5086 32.632 59.5086 32.56 59.5086 32.464C59.5326 32.368 59.5446 32.26 59.5446 32.14C59.5446 31.684 59.4726 31.024 59.3286 30.16C59.2806 29.896 59.1846 29.488 59.0406 28.936C58.8966 28.384 58.7526 27.82 58.6086 27.244C58.4406 26.572 58.2486 25.84 58.0326 25.048C57.9366 24.712 57.8766 24.544 57.8526 24.544C57.6846 24.544 57.3966 24.652 56.9886 24.868C56.6046 25.06 56.1606 25.312 55.6566 25.624C55.1526 25.912 54.6246 26.236 54.0726 26.596C53.5206 26.932 53.0046 27.256 52.5246 27.568C52.0446 27.856 51.6366 28.108 51.3006 28.324C50.9406 28.516 50.7246 28.612 50.6526 28.612C50.3406 28.612 50.0886 28.504 49.8966 28.288C49.7046 28.072 49.6086 27.832 49.6086 27.568C49.6086 27.424 49.8126 27.22 50.2206 26.956C50.6046 26.668 51.0966 26.356 51.6966 26.02C52.2726 25.684 52.9086 25.336 53.6046 24.976C54.2766 24.616 54.9006 24.292 55.4766 24.004C56.0766 23.716 56.5686 23.476 56.9526 23.284C57.3606 23.092 57.5646 22.996 57.5646 22.996C57.3486 21.892 57.1686 20.908 57.0246 20.044C56.9046 19.3 56.7846 18.616 56.6646 17.992C56.5686 17.368 56.5206 17.032 56.5206 16.984C56.5206 16.672 56.5806 16.444 56.7006 16.3C56.8446 16.132 57.0006 16.048 57.1686 16.048C57.4326 16.048 57.6006 16.228 57.6726 16.588C57.9366 17.884 58.1766 19.036 58.3926 20.044C58.6326 21.052 58.8606 21.868 59.0766 22.492C59.2926 22.444 59.6646 22.312 60.1926 22.096C60.7206 21.856 61.2726 21.604 61.8486 21.34C62.4246 21.076 62.9406 20.848 63.3966 20.656C63.8766 20.44 64.1526 20.332 64.2246 20.332C64.3686 20.332 64.4526 20.38 64.4766 20.476C64.5246 20.572 64.5726 20.656 64.6206 20.728ZM91.023 20.728C90.711 21.088 90.267 21.448 89.691 21.808C89.115 22.144 88.539 22.456 87.963 22.744C87.387 23.032 86.883 23.284 86.451 23.5C86.019 23.692 85.803 23.824 85.803 23.896C85.803 23.968 85.851 24.184 85.947 24.544C86.043 24.904 86.151 25.336 86.271 25.84C86.415 26.32 86.559 26.824 86.703 27.352C86.847 27.88 86.967 28.348 87.063 28.756C87.111 28.996 87.171 29.308 87.243 29.692C87.315 30.076 87.375 30.46 87.423 30.844C87.495 31.228 87.555 31.576 87.603 31.888C87.651 32.176 87.675 32.332 87.675 32.356C87.675 32.716 87.615 33.088 87.495 33.472C87.375 33.856 87.183 34.048 86.919 34.048C86.775 34.048 86.643 33.988 86.523 33.868C86.403 33.748 86.295 33.616 86.199 33.472C86.103 33.304 86.031 33.148 85.983 33.004C85.935 32.86 85.911 32.752 85.911 32.68C85.911 32.632 85.911 32.56 85.911 32.464C85.935 32.368 85.947 32.26 85.947 32.14C85.947 31.684 85.875 31.024 85.731 30.16C85.683 29.896 85.587 29.488 85.443 28.936C85.299 28.384 85.155 27.82 85.011 27.244C84.843 26.572 84.651 25.84 84.435 25.048C84.339 24.712 84.279 24.544 84.255 24.544C84.087 24.544 83.799 24.652 83.391 24.868C83.007 25.06 82.563 25.312 82.059 25.624C81.555 25.912 81.027 26.236 80.475 26.596C79.923 26.932 79.407 27.256 78.927 27.568C78.447 27.856 78.039 28.108 77.703 28.324C77.343 28.516 77.127 28.612 77.055 28.612C76.743 28.612 76.491 28.504 76.299 28.288C76.107 28.072 76.011 27.832 76.011 27.568C76.011 27.424 76.215 27.22 76.623 26.956C77.007 26.668 77.499 26.356 78.099 26.02C78.675 25.684 79.311 25.336 80.007 24.976C80.679 24.616 81.303 24.292 81.879 24.004C82.479 23.716 82.971 23.476 83.355 23.284C83.763 23.092 83.967 22.996 83.967 22.996C83.751 21.892 83.571 20.908 83.427 20.044C83.307 19.3 83.187 18.616 83.067 17.992C82.971 17.368 82.923 17.032 82.923 16.984C82.923 16.672 82.983 16.444 83.103 16.3C83.247 16.132 83.403 16.048 83.571 16.048C83.835 16.048 84.003 16.228 84.075 16.588C84.339 17.884 84.579 19.036 84.795 20.044C85.035 21.052 85.263 21.868 85.479 22.492C85.695 22.444 86.067 22.312 86.595 22.096C87.123 21.856 87.675 21.604 88.251 21.34C88.827 21.076 89.343 20.848 89.799 20.656C90.279 20.44 90.555 20.332 90.627 20.332C90.771 20.332 90.855 20.38 90.879 20.476C90.927 20.572 90.975 20.656 91.023 20.728ZM104.499 30.34C104.619 30.46 104.679 30.532 104.679 30.556C104.679 30.604 104.607 30.748 104.463 30.988C104.343 31.228 104.175 31.48 103.959 31.744C103.743 32.008 103.503 32.248 103.239 32.464C102.999 32.656 102.759 32.752 102.519 32.752C102.015 32.752 101.607 32.656 101.295 32.464C100.983 32.248 100.719 31.984 100.503 31.672C100.311 31.36 100.155 31.024 100.035 30.664C99.9391 30.28 99.8551 29.92 99.7831 29.584C99.7351 29.416 99.6871 29.332 99.6391 29.332C99.5671 29.332 99.4231 29.596 99.2071 30.124C98.9911 30.628 98.7511 31.192 98.4871 31.816C98.2471 32.416 98.0071 32.98 97.7671 33.508C97.5511 34.012 97.4071 34.264 97.3351 34.264C96.9031 34.264 96.5311 34.084 96.2191 33.724C95.9311 33.34 95.6911 32.908 95.4991 32.428C95.3311 31.924 95.1991 31.42 95.1031 30.916C95.0071 30.388 94.9471 29.98 94.9231 29.692C94.8511 29.044 94.6951 27.964 94.4551 26.452C94.2151 24.94 94.0111 23.104 93.8431 20.944C93.7951 20.488 93.7351 20.08 93.6631 19.72C93.6151 19.336 93.5551 18.916 93.4831 18.46C93.4111 18.004 93.3511 17.488 93.3031 16.912C93.2551 16.336 93.2311 15.628 93.2311 14.788C93.2311 14.74 93.2431 14.584 93.2671 14.32C93.2911 14.056 93.3271 13.768 93.3751 13.456C93.4231 13.144 93.4951 12.868 93.5911 12.628C93.7111 12.388 93.8431 12.268 93.9871 12.268C94.1551 12.268 94.3111 12.376 94.4551 12.592C94.5991 12.784 94.7191 13.012 94.8151 13.276C94.9351 13.54 95.0191 13.792 95.0671 14.032C95.1151 14.272 95.1391 14.44 95.1391 14.536C95.1391 14.896 95.1151 15.232 95.0671 15.544C95.0191 15.856 94.9951 16.144 94.9951 16.408C94.9951 16.768 95.0191 17.224 95.0671 17.776C95.1391 18.328 95.2231 18.892 95.3191 19.468C95.4151 20.044 95.4991 20.608 95.5711 21.16C95.6431 21.688 95.7031 22.12 95.7511 22.456C95.7511 22.48 95.7751 22.648 95.8231 22.96C95.8711 23.272 95.9191 23.668 95.9671 24.148C96.0391 24.604 96.0991 25.108 96.1471 25.66C96.2191 26.188 96.2911 26.716 96.3631 27.244C96.4351 27.748 96.4951 28.204 96.5431 28.612C96.6151 28.996 96.6631 29.272 96.6871 29.44C96.6871 29.512 96.6991 29.62 96.7231 29.764C96.7711 29.884 96.8071 30.028 96.8311 30.196C96.8791 30.364 96.9271 30.52 96.9751 30.664C97.0231 30.808 97.0831 30.916 97.1551 30.988C97.2991 30.7 97.4791 30.256 97.6951 29.656C97.9351 29.056 98.1751 28.444 98.4151 27.82C98.6791 27.196 98.9191 26.656 99.1351 26.2C99.3751 25.72 99.5791 25.48 99.7471 25.48C99.9391 25.48 100.095 25.516 100.215 25.588C100.335 25.66 100.491 25.72 100.683 25.768C100.923 25.864 101.043 25.996 101.043 26.164C101.043 26.308 101.067 26.488 101.115 26.704C101.163 26.992 101.235 27.376 101.331 27.856C101.451 28.312 101.583 28.768 101.727 29.224C101.871 29.656 102.039 30.028 102.231 30.34C102.423 30.652 102.615 30.808 102.807 30.808C102.903 30.808 103.035 30.688 103.203 30.448C103.371 30.184 103.599 30.04 103.887 30.016C103.935 30.016 104.019 30.052 104.139 30.124C104.259 30.172 104.379 30.244 104.499 30.34ZM116.803 33.22C116.827 33.268 116.839 33.34 116.839 33.436C116.839 33.58 116.731 33.796 116.515 34.084C116.443 34.18 116.287 34.336 116.047 34.552C115.807 34.768 115.483 34.984 115.075 35.2C114.667 35.416 114.163 35.608 113.563 35.776C112.987 35.944 112.303 36.028 111.511 36.028C110.959 36.028 110.419 35.908 109.891 35.668C109.363 35.404 108.895 35.032 108.487 34.552C108.079 34.048 107.743 33.436 107.479 32.716C107.215 31.972 107.083 31.108 107.083 30.124C107.083 29.188 107.203 28.312 107.443 27.496C107.683 26.68 107.983 25.96 108.343 25.336C108.727 24.712 109.147 24.22 109.603 23.86C110.059 23.5 110.503 23.32 110.935 23.32C111.319 23.32 111.703 23.404 112.087 23.572C112.495 23.716 112.855 23.908 113.167 24.148C113.503 24.388 113.767 24.664 113.959 24.976C114.151 25.264 114.247 25.564 114.247 25.876C114.247 26.236 114.079 26.608 113.743 26.992C113.431 27.376 113.047 27.736 112.591 28.072C112.135 28.384 111.679 28.648 111.223 28.864C110.767 29.056 110.407 29.152 110.143 29.152C109.999 29.152 109.867 29.092 109.747 28.972C109.651 28.828 109.603 28.66 109.603 28.468C109.603 28.132 109.747 27.868 110.035 27.676C110.347 27.484 110.683 27.316 111.043 27.172C111.403 27.004 111.727 26.812 112.015 26.596C112.327 26.38 112.483 26.08 112.483 25.696C112.483 25.648 112.423 25.528 112.303 25.336C112.183 25.144 111.859 25.048 111.331 25.048C111.091 25.048 110.815 25.192 110.503 25.48C110.191 25.744 109.891 26.116 109.603 26.596C109.315 27.052 109.075 27.604 108.883 28.252C108.691 28.876 108.595 29.56 108.595 30.304C108.595 30.928 108.703 31.492 108.919 31.996C109.159 32.5 109.459 32.932 109.819 33.292C110.179 33.628 110.599 33.892 111.079 34.084C111.559 34.276 112.051 34.372 112.555 34.372C112.915 34.372 113.299 34.3 113.707 34.156C114.139 33.988 114.535 33.82 114.895 33.652C115.279 33.46 115.603 33.292 115.867 33.148C116.155 32.98 116.335 32.896 116.407 32.896C116.479 32.896 116.551 32.932 116.623 33.004C116.719 33.076 116.779 33.148 116.803 33.22ZM154.125 17.236C154.125 17.404 154.053 17.548 153.909 17.668C153.789 17.764 153.669 17.812 153.549 17.812C153.333 17.812 152.985 17.836 152.505 17.884C152.049 17.932 151.544 17.992 150.992 18.064C150.465 18.112 149.937 18.172 149.409 18.244C148.905 18.292 148.497 18.34 148.185 18.388C148.089 18.388 147.885 18.4 147.573 18.424C147.285 18.448 146.949 18.484 146.565 18.532C146.205 18.556 145.833 18.592 145.449 18.64C145.089 18.688 144.801 18.724 144.585 18.748C144.321 18.796 143.937 18.88 143.433 19C142.929 19.12 142.473 19.24 142.064 19.36C141.921 19.408 141.789 19.444 141.669 19.468C141.549 19.492 141.453 19.516 141.381 19.54C141.285 19.564 141.201 19.588 141.129 19.612L143.073 26.488C143.145 26.704 143.265 27.052 143.433 27.532C143.601 28.012 143.793 28.54 144.009 29.116C144.249 29.692 144.489 30.292 144.729 30.916C144.993 31.54 145.221 32.116 145.413 32.644C145.533 32.956 145.665 33.34 145.809 33.796C145.953 34.252 146.085 34.72 146.205 35.2C146.325 35.656 146.421 36.076 146.493 36.46C146.589 36.844 146.637 37.108 146.637 37.252C146.637 37.588 146.541 37.936 146.349 38.296C146.157 38.68 145.905 38.872 145.593 38.872C145.305 38.872 145.161 38.668 145.161 38.26V38.008C145.161 37.936 145.161 37.852 145.161 37.756C145.185 37.66 145.197 37.552 145.197 37.432C145.197 37.24 145.125 36.916 144.981 36.46C144.837 35.98 144.657 35.452 144.441 34.876C144.225 34.276 143.985 33.652 143.721 33.004C143.481 32.332 143.241 31.708 143.001 31.132C142.785 30.532 142.593 30.028 142.425 29.62C142.257 29.188 142.149 28.9 142.101 28.756C142.029 28.564 141.933 28.288 141.812 27.928C141.717 27.568 141.597 27.16 141.453 26.704C141.309 26.248 141.153 25.768 140.985 25.264C140.841 24.736 140.697 24.22 140.553 23.716C140.193 22.54 139.797 21.256 139.365 19.864C139.245 19.888 138.849 19.948 138.177 20.044C137.529 20.116 136.797 20.2 135.981 20.296C135.165 20.392 134.385 20.488 133.641 20.584C132.897 20.656 132.392 20.692 132.128 20.692C131.528 20.692 131.144 20.596 130.976 20.404C130.808 20.212 130.712 19.972 130.688 19.684C130.688 19.492 130.736 19.3 130.832 19.108C130.928 18.892 131.06 18.784 131.228 18.784C131.42 18.784 131.576 18.82 131.696 18.892C131.792 18.94 131.924 18.964 132.092 18.964C132.14 18.964 132.38 18.94 132.812 18.892C133.269 18.844 133.797 18.784 134.397 18.712C135.021 18.64 135.657 18.568 136.305 18.496C136.977 18.424 137.565 18.364 138.069 18.316C138.189 18.316 138.309 18.316 138.429 18.316C138.573 18.292 138.705 18.268 138.825 18.244C138.945 18.22 139.065 18.208 139.185 18.208C139.185 18.136 139.221 17.98 139.293 17.74C139.389 17.476 139.485 17.344 139.581 17.344C139.821 17.344 140.013 17.44 140.157 17.632C140.325 17.8 140.469 17.92 140.589 17.992C140.757 17.968 141.009 17.92 141.345 17.848C141.705 17.752 142.077 17.668 142.461 17.596C142.869 17.524 143.253 17.464 143.613 17.416C143.997 17.344 144.321 17.296 144.585 17.272L148.797 17.02C149.157 16.996 149.565 16.972 150.021 16.948C150.501 16.9 150.969 16.852 151.425 16.804C151.881 16.756 152.277 16.72 152.613 16.696C152.949 16.648 153.177 16.624 153.297 16.624C153.513 16.648 153.705 16.72 153.873 16.84C154.041 16.96 154.125 17.092 154.125 17.236ZM161.46 31.024C161.46 31.24 161.316 31.468 161.028 31.708C160.74 31.948 160.404 32.176 160.02 32.392C159.636 32.584 159.24 32.752 158.832 32.896C158.448 33.04 158.16 33.112 157.968 33.112C157.752 33.112 157.512 33.052 157.248 32.932C157.008 32.812 156.768 32.668 156.528 32.5C156.312 32.332 156.12 32.176 155.952 32.032C155.784 31.888 155.676 31.792 155.628 31.744C155.556 31.816 155.448 31.96 155.304 32.176C155.16 32.392 154.98 32.632 154.764 32.896C154.572 33.136 154.356 33.352 154.116 33.544C153.9 33.736 153.672 33.832 153.432 33.832C152.808 33.832 152.268 33.496 151.812 32.824C151.356 32.152 150.972 31.384 150.66 30.52C150.372 29.656 150.144 28.828 149.976 28.036C149.832 27.22 149.76 26.668 149.76 26.38C149.76 26.212 149.844 26.08 150.012 25.984C150.204 25.864 150.348 25.804 150.444 25.804C150.78 25.804 151.008 25.924 151.128 26.164C151.248 26.38 151.308 26.62 151.308 26.884C151.308 27.1 151.368 27.484 151.488 28.036C151.632 28.588 151.8 29.152 151.992 29.728C152.184 30.304 152.388 30.82 152.604 31.276C152.82 31.708 153.012 31.924 153.18 31.924C153.492 31.924 153.756 31.732 153.972 31.348C154.212 30.94 154.404 30.484 154.548 29.98C154.692 29.452 154.8 28.96 154.872 28.504C154.944 28.024 154.98 27.712 154.98 27.568C154.98 27.544 154.98 27.472 154.98 27.352C155.004 27.208 155.028 27.064 155.052 26.92C155.076 26.776 155.088 26.644 155.088 26.524C155.112 26.404 155.124 26.32 155.124 26.272C155.124 26.104 155.088 25.996 155.016 25.948C154.944 25.876 154.908 25.744 154.908 25.552C154.908 25.408 154.98 25.276 155.124 25.156C155.268 25.012 155.58 24.94 156.06 24.94C156.252 24.94 156.396 25 156.492 25.12C156.612 25.216 156.696 25.336 156.744 25.48C156.792 25.624 156.816 25.768 156.816 25.912C156.84 26.032 156.852 26.116 156.852 26.164C156.852 26.188 156.84 26.356 156.816 26.668C156.792 26.98 156.768 27.328 156.744 27.712C156.744 28.072 156.732 28.42 156.708 28.756C156.684 29.092 156.672 29.296 156.672 29.368C156.672 29.44 156.708 29.584 156.78 29.8C156.852 30.016 156.936 30.244 157.032 30.484C157.152 30.7 157.284 30.904 157.428 31.096C157.572 31.264 157.728 31.348 157.896 31.348C158.184 31.348 158.448 31.312 158.688 31.24C158.952 31.144 159.192 31.048 159.408 30.952C159.648 30.832 159.864 30.736 160.056 30.664C160.248 30.568 160.428 30.52 160.596 30.52C160.812 30.52 161.004 30.568 161.172 30.664C161.364 30.76 161.46 30.88 161.46 31.024ZM171.401 26.02C171.401 26.188 171.329 26.332 171.185 26.452C171.041 26.548 170.873 26.632 170.681 26.704C170.489 26.776 170.297 26.836 170.105 26.884C169.913 26.908 169.757 26.92 169.637 26.92C169.277 26.92 169.037 26.896 168.917 26.848C168.797 26.8 168.701 26.776 168.629 26.776C168.029 26.776 167.549 26.824 167.189 26.92C166.829 27.016 166.541 27.172 166.325 27.388C166.133 27.604 166.001 27.88 165.929 28.216C165.881 28.528 165.857 28.912 165.857 29.368C165.857 30.136 165.881 30.748 165.929 31.204C166.001 31.66 166.061 32.032 166.109 32.32C166.181 32.608 166.241 32.836 166.289 33.004C166.361 33.148 166.397 33.292 166.397 33.436C166.397 33.628 166.289 33.832 166.073 34.048C165.881 34.264 165.701 34.372 165.533 34.372C165.245 34.372 164.981 34.12 164.741 33.616C164.525 33.088 164.333 32.476 164.165 31.78C164.021 31.06 163.901 30.352 163.805 29.656C163.709 28.96 163.661 28.432 163.661 28.072C163.661 27.664 163.697 27.28 163.769 26.92C163.841 26.536 163.937 26.212 164.057 25.948C164.177 25.66 164.309 25.432 164.453 25.264C164.597 25.096 164.741 25.012 164.885 25.012C165.005 25.012 165.101 25.06 165.173 25.156C165.245 25.228 165.305 25.324 165.353 25.444C165.401 25.54 165.449 25.636 165.497 25.732C165.569 25.804 165.653 25.84 165.749 25.84C165.965 25.84 166.313 25.732 166.793 25.516C167.273 25.3 167.861 25.192 168.557 25.192C169.205 25.192 169.685 25.216 169.997 25.264C170.333 25.288 170.657 25.36 170.969 25.48C171.041 25.504 171.125 25.564 171.221 25.66C171.341 25.732 171.401 25.852 171.401 26.02ZM183.835 20.728C183.523 21.088 183.079 21.448 182.503 21.808C181.927 22.144 181.351 22.456 180.775 22.744C180.199 23.032 179.695 23.284 179.263 23.5C178.831 23.692 178.615 23.824 178.615 23.896C178.615 23.968 178.663 24.184 178.759 24.544C178.855 24.904 178.963 25.336 179.083 25.84C179.227 26.32 179.371 26.824 179.515 27.352C179.659 27.88 179.779 28.348 179.875 28.756C179.923 28.996 179.983 29.308 180.055 29.692C180.127 30.076 180.187 30.46 180.235 30.844C180.307 31.228 180.367 31.576 180.415 31.888C180.463 32.176 180.487 32.332 180.487 32.356C180.487 32.716 180.427 33.088 180.307 33.472C180.187 33.856 179.995 34.048 179.731 34.048C179.587 34.048 179.455 33.988 179.335 33.868C179.215 33.748 179.107 33.616 179.011 33.472C178.915 33.304 178.843 33.148 178.795 33.004C178.747 32.86 178.723 32.752 178.723 32.68C178.723 32.632 178.723 32.56 178.723 32.464C178.747 32.368 178.759 32.26 178.759 32.14C178.759 31.684 178.687 31.024 178.543 30.16C178.495 29.896 178.399 29.488 178.255 28.936C178.111 28.384 177.967 27.82 177.823 27.244C177.655 26.572 177.463 25.84 177.247 25.048C177.151 24.712 177.091 24.544 177.067 24.544C176.899 24.544 176.611 24.652 176.203 24.868C175.819 25.06 175.375 25.312 174.871 25.624C174.367 25.912 173.839 26.236 173.287 26.596C172.735 26.932 172.219 27.256 171.739 27.568C171.259 27.856 170.851 28.108 170.515 28.324C170.155 28.516 169.939 28.612 169.867 28.612C169.555 28.612 169.303 28.504 169.111 28.288C168.919 28.072 168.823 27.832 168.823 27.568C168.823 27.424 169.027 27.22 169.435 26.956C169.819 26.668 170.311 26.356 170.911 26.02C171.487 25.684 172.123 25.336 172.819 24.976C173.491 24.616 174.115 24.292 174.691 24.004C175.291 23.716 175.783 23.476 176.167 23.284C176.575 23.092 176.779 22.996 176.779 22.996C176.563 21.892 176.383 20.908 176.239 20.044C176.119 19.3 175.999 18.616 175.879 17.992C175.783 17.368 175.735 17.032 175.735 16.984C175.735 16.672 175.795 16.444 175.915 16.3C176.059 16.132 176.215 16.048 176.383 16.048C176.647 16.048 176.815 16.228 176.887 16.588C177.151 17.884 177.391 19.036 177.607 20.044C177.847 21.052 178.075 21.868 178.291 22.492C178.507 22.444 178.879 22.312 179.407 22.096C179.935 21.856 180.487 21.604 181.063 21.34C181.639 21.076 182.155 20.848 182.611 20.656C183.091 20.44 183.367 20.332 183.439 20.332C183.583 20.332 183.667 20.38 183.691 20.476C183.739 20.572 183.787 20.656 183.835 20.728ZM190.58 35.956C190.58 36.148 190.508 36.292 190.364 36.388C190.22 36.484 190.052 36.532 189.86 36.532C189.644 36.532 189.416 36.328 189.176 35.92C188.96 35.512 188.744 34.996 188.528 34.372C188.312 33.748 188.108 33.076 187.916 32.356C187.724 31.612 187.556 30.928 187.412 30.304C187.268 29.656 187.148 29.116 187.052 28.684C186.98 28.252 186.944 28.012 186.944 27.964C186.944 27.868 186.896 27.616 186.8 27.208C186.728 26.8 186.62 26.164 186.476 25.3C186.356 24.436 186.212 23.32 186.044 21.952C185.9 20.56 185.744 18.844 185.576 16.804C185.576 16.588 185.612 16.312 185.684 15.976C185.756 15.64 185.924 15.472 186.188 15.472C186.524 15.472 186.776 15.7 186.944 16.156C187.136 16.612 187.28 17.176 187.376 17.848C187.496 18.52 187.58 19.228 187.628 19.972C187.676 20.692 187.736 21.328 187.808 21.88C187.904 22.648 187.988 23.344 188.06 23.968C188.156 24.592 188.24 25.216 188.312 25.84C188.408 26.44 188.516 27.076 188.636 27.748C188.78 28.42 188.948 29.164 189.14 29.98L190.58 35.956ZM203.393 33.22C203.417 33.268 203.429 33.34 203.429 33.436C203.429 33.58 203.321 33.796 203.105 34.084C203.033 34.18 202.877 34.336 202.637 34.552C202.397 34.768 202.073 34.984 201.665 35.2C201.257 35.416 200.753 35.608 200.153 35.776C199.577 35.944 198.893 36.028 198.101 36.028C197.549 36.028 197.009 35.908 196.481 35.668C195.953 35.404 195.485 35.032 195.077 34.552C194.669 34.048 194.333 33.436 194.069 32.716C193.805 31.972 193.673 31.108 193.673 30.124C193.673 29.188 193.793 28.312 194.033 27.496C194.273 26.68 194.573 25.96 194.933 25.336C195.317 24.712 195.737 24.22 196.193 23.86C196.649 23.5 197.093 23.32 197.525 23.32C197.909 23.32 198.293 23.404 198.677 23.572C199.085 23.716 199.445 23.908 199.757 24.148C200.093 24.388 200.357 24.664 200.549 24.976C200.741 25.264 200.837 25.564 200.837 25.876C200.837 26.236 200.669 26.608 200.333 26.992C200.021 27.376 199.637 27.736 199.181 28.072C198.725 28.384 198.269 28.648 197.813 28.864C197.357 29.056 196.997 29.152 196.733 29.152C196.589 29.152 196.457 29.092 196.337 28.972C196.241 28.828 196.193 28.66 196.193 28.468C196.193 28.132 196.337 27.868 196.625 27.676C196.937 27.484 197.273 27.316 197.633 27.172C197.993 27.004 198.317 26.812 198.605 26.596C198.917 26.38 199.073 26.08 199.073 25.696C199.073 25.648 199.013 25.528 198.893 25.336C198.773 25.144 198.449 25.048 197.921 25.048C197.681 25.048 197.405 25.192 197.093 25.48C196.781 25.744 196.481 26.116 196.193 26.596C195.905 27.052 195.665 27.604 195.473 28.252C195.281 28.876 195.185 29.56 195.185 30.304C195.185 30.928 195.293 31.492 195.509 31.996C195.749 32.5 196.049 32.932 196.409 33.292C196.769 33.628 197.189 33.892 197.669 34.084C198.149 34.276 198.641 34.372 199.145 34.372C199.505 34.372 199.889 34.3 200.297 34.156C200.729 33.988 201.125 33.82 201.485 33.652C201.869 33.46 202.193 33.292 202.457 33.148C202.745 32.98 202.925 32.896 202.997 32.896C203.069 32.896 203.141 32.932 203.213 33.004C203.309 33.076 203.369 33.148 203.393 33.22ZM214.036 32.248C214.036 32.656 213.892 33.016 213.604 33.328C213.34 33.616 212.992 33.868 212.56 34.084C212.152 34.276 211.696 34.432 211.192 34.552C210.688 34.672 210.208 34.768 209.752 34.84C209.296 34.888 208.888 34.924 208.528 34.948C208.192 34.948 207.976 34.948 207.88 34.948C207.352 34.948 206.944 34.864 206.656 34.696C206.368 34.528 206.224 34.228 206.224 33.796C206.224 33.652 206.236 33.532 206.26 33.436C206.284 33.316 206.38 33.256 206.548 33.256C206.62 33.256 206.74 33.28 206.908 33.328C207.076 33.352 207.208 33.364 207.304 33.364C207.4 33.364 207.7 33.352 208.204 33.328C208.732 33.28 209.284 33.208 209.86 33.112C210.46 33.016 210.988 32.884 211.444 32.716C211.924 32.524 212.164 32.284 212.164 31.996C212.164 31.948 211.912 31.804 211.408 31.564C210.928 31.3 210.196 30.868 209.212 30.268C208.444 29.788 207.904 29.308 207.592 28.828C207.28 28.324 207.124 27.652 207.124 26.812C207.124 26.284 207.232 25.852 207.448 25.516C207.688 25.18 208 24.916 208.384 24.724C208.792 24.532 209.248 24.4 209.752 24.328C210.28 24.232 210.832 24.184 211.408 24.184C211.456 24.184 211.6 24.208 211.84 24.256C212.104 24.304 212.38 24.388 212.668 24.508C212.956 24.604 213.208 24.736 213.424 24.904C213.664 25.048 213.784 25.216 213.784 25.408C213.784 25.456 213.736 25.528 213.64 25.624C213.568 25.72 213.436 25.9 213.244 26.164C213.172 26.14 213.04 26.104 212.848 26.056C212.68 26.008 212.476 25.96 212.236 25.912C212.02 25.84 211.792 25.792 211.552 25.768C211.312 25.72 211.12 25.696 210.976 25.696C210.352 25.696 209.848 25.816 209.464 26.056C209.08 26.272 208.888 26.704 208.888 27.352C208.888 27.664 209.008 27.952 209.248 28.216C209.512 28.48 209.836 28.732 210.22 28.972C210.604 29.188 211.012 29.416 211.444 29.656C211.9 29.872 212.32 30.112 212.704 30.376C213.088 30.64 213.4 30.928 213.64 31.24C213.904 31.528 214.036 31.864 214.036 32.248ZM251.894 17.236C251.894 17.404 251.822 17.548 251.678 17.668C251.558 17.764 251.438 17.812 251.318 17.812C251.102 17.812 250.754 17.836 250.274 17.884C249.818 17.932 249.314 17.992 248.762 18.064C248.234 18.112 247.706 18.172 247.178 18.244C246.674 18.292 246.266 18.34 245.954 18.388C245.858 18.388 245.654 18.4 245.342 18.424C245.054 18.448 244.718 18.484 244.334 18.532C243.974 18.556 243.602 18.592 243.218 18.64C242.858 18.688 242.57 18.724 242.354 18.748C242.09 18.796 241.706 18.88 241.202 19C240.698 19.12 240.242 19.24 239.834 19.36C239.69 19.408 239.558 19.444 239.438 19.468C239.318 19.492 239.222 19.516 239.15 19.54C239.054 19.564 238.97 19.588 238.898 19.612L240.842 26.488C240.914 26.704 241.034 27.052 241.202 27.532C241.37 28.012 241.562 28.54 241.778 29.116C242.018 29.692 242.258 30.292 242.498 30.916C242.762 31.54 242.99 32.116 243.182 32.644C243.302 32.956 243.434 33.34 243.578 33.796C243.722 34.252 243.854 34.72 243.974 35.2C244.094 35.656 244.19 36.076 244.262 36.46C244.358 36.844 244.406 37.108 244.406 37.252C244.406 37.588 244.31 37.936 244.118 38.296C243.926 38.68 243.674 38.872 243.362 38.872C243.074 38.872 242.93 38.668 242.93 38.26V38.008C242.93 37.936 242.93 37.852 242.93 37.756C242.954 37.66 242.966 37.552 242.966 37.432C242.966 37.24 242.894 36.916 242.75 36.46C242.606 35.98 242.426 35.452 242.21 34.876C241.994 34.276 241.754 33.652 241.49 33.004C241.25 32.332 241.01 31.708 240.77 31.132C240.554 30.532 240.362 30.028 240.194 29.62C240.026 29.188 239.918 28.9 239.87 28.756C239.798 28.564 239.702 28.288 239.582 27.928C239.486 27.568 239.366 27.16 239.222 26.704C239.078 26.248 238.922 25.768 238.754 25.264C238.61 24.736 238.466 24.22 238.322 23.716C237.962 22.54 237.566 21.256 237.134 19.864C237.014 19.888 236.618 19.948 235.946 20.044C235.298 20.116 234.566 20.2 233.75 20.296C232.934 20.392 232.154 20.488 231.41 20.584C230.666 20.656 230.162 20.692 229.898 20.692C229.298 20.692 228.914 20.596 228.746 20.404C228.578 20.212 228.482 19.972 228.458 19.684C228.458 19.492 228.506 19.3 228.602 19.108C228.698 18.892 228.83 18.784 228.998 18.784C229.19 18.784 229.346 18.82 229.466 18.892C229.562 18.94 229.694 18.964 229.862 18.964C229.91 18.964 230.15 18.94 230.582 18.892C231.038 18.844 231.566 18.784 232.166 18.712C232.79 18.64 233.426 18.568 234.074 18.496C234.746 18.424 235.334 18.364 235.838 18.316C235.958 18.316 236.078 18.316 236.198 18.316C236.342 18.292 236.474 18.268 236.594 18.244C236.714 18.22 236.834 18.208 236.954 18.208C236.954 18.136 236.99 17.98 237.062 17.74C237.158 17.476 237.254 17.344 237.35 17.344C237.59 17.344 237.782 17.44 237.926 17.632C238.094 17.8 238.238 17.92 238.358 17.992C238.526 17.968 238.778 17.92 239.114 17.848C239.474 17.752 239.846 17.668 240.23 17.596C240.638 17.524 241.022 17.464 241.382 17.416C241.766 17.344 242.09 17.296 242.354 17.272L246.566 17.02C246.926 16.996 247.334 16.972 247.79 16.948C248.27 16.9 248.738 16.852 249.194 16.804C249.65 16.756 250.046 16.72 250.382 16.696C250.718 16.648 250.946 16.624 251.066 16.624C251.282 16.648 251.474 16.72 251.642 16.84C251.81 16.96 251.894 17.092 251.894 17.236ZM257.393 33.22C257.417 33.268 257.429 33.34 257.429 33.436C257.429 33.58 257.321 33.796 257.105 34.084C257.033 34.18 256.877 34.336 256.637 34.552C256.397 34.768 256.073 34.984 255.665 35.2C255.257 35.416 254.753 35.608 254.153 35.776C253.577 35.944 252.893 36.028 252.101 36.028C251.549 36.028 251.009 35.908 250.481 35.668C249.953 35.404 249.485 35.032 249.077 34.552C248.669 34.048 248.333 33.436 248.069 32.716C247.805 31.972 247.673 31.108 247.673 30.124C247.673 29.188 247.793 28.312 248.033 27.496C248.273 26.68 248.573 25.96 248.933 25.336C249.317 24.712 249.737 24.22 250.193 23.86C250.649 23.5 251.093 23.32 251.525 23.32C251.909 23.32 252.293 23.404 252.677 23.572C253.085 23.716 253.445 23.908 253.757 24.148C254.093 24.388 254.357 24.664 254.549 24.976C254.741 25.264 254.837 25.564 254.837 25.876C254.837 26.236 254.669 26.608 254.333 26.992C254.021 27.376 253.637 27.736 253.181 28.072C252.725 28.384 252.269 28.648 251.813 28.864C251.357 29.056 250.997 29.152 250.733 29.152C250.589 29.152 250.457 29.092 250.337 28.972C250.241 28.828 250.193 28.66 250.193 28.468C250.193 28.132 250.337 27.868 250.625 27.676C250.937 27.484 251.273 27.316 251.633 27.172C251.993 27.004 252.317 26.812 252.605 26.596C252.917 26.38 253.073 26.08 253.073 25.696C253.073 25.648 253.013 25.528 252.893 25.336C252.773 25.144 252.449 25.048 251.921 25.048C251.681 25.048 251.405 25.192 251.093 25.48C250.781 25.744 250.481 26.116 250.193 26.596C249.905 27.052 249.665 27.604 249.473 28.252C249.281 28.876 249.185 29.56 249.185 30.304C249.185 30.928 249.293 31.492 249.509 31.996C249.749 32.5 250.049 32.932 250.409 33.292C250.769 33.628 251.189 33.892 251.669 34.084C252.149 34.276 252.641 34.372 253.145 34.372C253.505 34.372 253.889 34.3 254.297 34.156C254.729 33.988 255.125 33.82 255.485 33.652C255.869 33.46 256.193 33.292 256.457 33.148C256.745 32.98 256.925 32.896 256.997 32.896C257.069 32.896 257.141 32.932 257.213 33.004C257.309 33.076 257.369 33.148 257.393 33.22ZM277.036 29.512C277.036 29.944 276.832 30.484 276.424 31.132C276.04 31.756 275.512 32.368 274.84 32.968C274.168 33.568 273.388 34.084 272.5 34.516C271.612 34.924 270.688 35.128 269.728 35.128C269.296 35.128 268.84 35.056 268.36 34.912C267.88 34.768 267.412 34.564 266.956 34.3C266.5 34.012 266.092 33.676 265.732 33.292C265.372 32.884 265.108 32.428 264.94 31.924C264.796 32.068 264.616 32.308 264.4 32.644C264.208 32.98 263.992 33.328 263.752 33.688C263.512 34.024 263.248 34.324 262.96 34.588C262.672 34.828 262.372 34.948 262.06 34.948C261.748 34.948 261.484 34.792 261.268 34.48C261.076 34.144 260.92 33.784 260.8 33.4C260.68 32.992 260.596 32.608 260.548 32.248C260.5 31.888 260.476 31.684 260.476 31.636C260.476 31.348 260.56 30.808 260.728 30.016C260.896 29.2 261.148 28.36 261.484 27.496C261.82 26.632 262.24 25.864 262.744 25.192C263.272 24.52 263.884 24.184 264.58 24.184C264.844 24.184 265.012 24.304 265.084 24.544C265.18 24.76 265.228 24.976 265.228 25.192V26.272C265.348 26.368 265.468 26.44 265.588 26.488C265.732 26.512 265.852 26.56 265.948 26.632C266.068 26.68 266.152 26.764 266.2 26.884C266.272 27.004 266.308 27.196 266.308 27.46C266.308 27.628 266.296 27.784 266.272 27.928C266.248 28.048 266.236 28.168 266.236 28.288C266.236 28.912 266.284 29.524 266.38 30.124C266.476 30.724 266.668 31.264 266.956 31.744C267.244 32.2 267.64 32.584 268.144 32.896C268.648 33.184 269.32 33.328 270.16 33.328C271.216 33.328 272.104 33.112 272.824 32.68C273.568 32.224 274.18 31.732 274.66 31.204C275.164 30.652 275.56 30.16 275.848 29.728C276.136 29.272 276.376 29.044 276.568 29.044C276.88 29.044 277.036 29.2 277.036 29.512ZM264.4 27.928C264.4 27.832 264.376 27.748 264.328 27.676C264.28 27.58 264.256 27.496 264.256 27.424C264.256 27.328 264.28 27.244 264.328 27.172C264.376 27.1 264.4 27.004 264.4 26.884C264.4 26.812 264.376 26.764 264.328 26.74C264.28 26.692 264.256 26.644 264.256 26.596C264.04 26.644 263.812 26.848 263.572 27.208C263.356 27.568 263.14 27.988 262.924 28.468C262.732 28.948 262.576 29.44 262.456 29.944C262.336 30.424 262.276 30.82 262.276 31.132C262.276 31.3 262.324 31.576 262.42 31.96C262.516 32.344 262.624 32.596 262.744 32.716C263.152 31.876 263.524 31.06 263.86 30.268C264.22 29.476 264.4 28.696 264.4 27.928ZM293.463 33.616C293.463 33.808 293.403 33.976 293.283 34.12C293.163 34.264 293.019 34.384 292.851 34.48C292.683 34.552 292.503 34.612 292.311 34.66C292.143 34.708 291.999 34.732 291.879 34.732C291.375 34.732 290.943 34.468 290.583 33.94C290.223 33.388 289.923 32.788 289.683 32.14C289.443 31.468 289.263 30.844 289.143 30.268C289.047 29.692 288.999 29.38 288.999 29.332C288.855 29.596 288.699 30.04 288.531 30.664C288.387 31.288 288.207 31.924 287.991 32.572C287.775 33.196 287.499 33.76 287.163 34.264C286.851 34.744 286.443 34.984 285.939 34.984C285.699 34.984 285.471 34.84 285.255 34.552C285.039 34.264 284.835 33.892 284.643 33.436C284.451 32.98 284.259 32.464 284.067 31.888C283.899 31.312 283.719 30.748 283.527 30.196C283.359 29.644 283.191 29.128 283.023 28.648C282.855 28.144 282.687 27.748 282.519 27.46C282.375 27.82 282.243 28.312 282.123 28.936C282.027 29.56 281.943 30.22 281.871 30.916C281.799 31.588 281.739 32.26 281.691 32.932C281.643 33.604 281.619 34.192 281.619 34.696C281.619 35.032 281.523 35.272 281.331 35.416C281.163 35.56 280.983 35.632 280.791 35.632C280.527 35.632 280.263 35.464 279.999 35.128C279.735 34.768 279.471 34.312 279.207 33.76C278.943 33.208 278.691 32.584 278.451 31.888C278.235 31.192 278.031 30.496 277.839 29.8C277.671 29.104 277.539 28.444 277.443 27.82C277.347 27.172 277.299 26.632 277.299 26.2C277.299 25.888 277.311 25.6 277.335 25.336C277.359 25.12 277.371 24.916 277.371 24.724C277.395 24.532 277.407 24.424 277.407 24.4C277.407 24.328 277.383 24.28 277.335 24.256C277.311 24.232 277.299 24.172 277.299 24.076C277.299 24.004 277.383 23.896 277.551 23.752C277.743 23.584 277.935 23.5 278.127 23.5C278.463 23.5 278.679 23.572 278.775 23.716C278.895 23.86 278.955 24.028 278.955 24.22C278.955 24.292 278.943 24.4 278.919 24.544C278.919 24.688 278.919 25.012 278.919 25.516C278.919 25.852 278.979 26.356 279.099 27.028C279.219 27.7 279.363 28.384 279.531 29.08C279.699 29.776 279.867 30.424 280.035 31.024C280.227 31.6 280.383 31.96 280.503 32.104C280.551 32.008 280.575 31.9 280.575 31.78C280.599 31.636 280.623 31.528 280.647 31.456L281.043 28.504C281.139 27.76 281.331 26.98 281.619 26.164C281.931 25.324 282.255 24.676 282.591 24.22C282.711 24.028 282.843 23.932 282.987 23.932C283.131 23.932 283.263 24.04 283.383 24.256C283.791 24.928 284.091 25.6 284.283 26.272C284.499 26.92 284.679 27.568 284.823 28.216C284.991 28.84 285.171 29.476 285.363 30.124C285.579 30.748 285.903 31.384 286.335 32.032C286.527 31.72 286.767 31.216 287.055 30.52C287.343 29.8 287.631 29.08 287.919 28.36C288.231 27.64 288.519 27.016 288.783 26.488C289.047 25.936 289.251 25.66 289.395 25.66C289.467 25.66 289.587 25.672 289.755 25.696C289.923 25.72 290.043 25.732 290.115 25.732C290.331 25.732 290.511 25.984 290.655 26.488C290.799 26.968 290.919 27.544 291.015 28.216C291.135 28.864 291.243 29.524 291.339 30.196C291.459 30.844 291.591 31.336 291.735 31.672C291.831 31.912 291.975 32.14 292.167 32.356C292.359 32.572 292.551 32.776 292.743 32.968C292.983 33.184 293.223 33.4 293.463 33.616Z" fill="url(#paint0_linear)"/>
<path d="M132.812 28H215.692V29.8H132.812V28Z" fill="url(#paint1_linear)"/>
<defs>
<linearGradient id="paint0_linear" x1="152.5" y1="10" x2="152.5" y2="46" gradientUnits="userSpaceOnUse">
<stop stop-color="white"/>
<stop offset="0.921875" stop-color="#EFFFE2" stop-opacity="0.3125"/>
<stop offset="1" stop-color="#E7FFD5" stop-opacity="0"/>
</linearGradient>
<linearGradient id="paint1_linear" x1="152.5" y1="10" x2="152.5" y2="46" gradientUnits="userSpaceOnUse">
<stop stop-color="white"/>
<stop offset="0.921875" stop-color="#EFFFE2" stop-opacity="0.3125"/>
<stop offset="1" stop-color="#E7FFD5" stop-opacity="0"/>
</linearGradient>
</defs>
</svg>
